<svg viewBox="0 0 123 172" fill="none" xmlns="http://www.w3.org/2000/svg">
<path d="M117.513 101.368C113.651 92.9232 108.25 88.2732 102.306 88.2732H93.423C88.2818 88.2732 83.538 91.7564 79.8571 98.161H73.1174V87.5817H79.3559C83.564 87.5817 87.0202 84.0812 87.3054 79.6645C87.5473 79.6905 87.7893 79.7077 88.0398 79.7077H99.4282C102.971 79.7077 105.857 76.8209 105.857 73.2772V71.3843C105.857 67.8406 102.971 64.9538 99.4282 64.9538H97.5964V58.7393H97.5791C97.5791 57.9614 97.3545 56.7859 96.3003 55.6277C95.73 54.9968 94.9783 54.4436 94.0019 53.9164C92.9045 53.3286 91.4961 52.7841 89.8025 52.2915V9.27417C89.7939 4.15739 85.6377 0 80.5224 0H44.0156C38.9003 0 34.7442 4.15739 34.7442 9.27417C34.7442 10.8559 36.023 12.1351 37.6042 12.1351C39.1855 12.1351 40.4643 10.8559 40.4643 9.27417C40.4643 7.31216 42.0628 5.71317 44.0242 5.71317H80.5311C82.4925 5.71317 84.091 7.31216 84.091 9.27417V60.6581C83.6849 60.7359 83.2615 60.8137 82.8122 60.8915C77.1007 61.8681 69.7994 62.404 62.2388 62.404C54.6782 62.404 47.3768 61.8681 41.6653 60.8915C41.2419 60.8223 40.8445 60.7445 40.4643 60.6754V26.7248C40.4643 25.1431 39.1855 23.8639 37.6042 23.8639C36.023 23.8639 34.7442 25.1431 34.7442 26.7248V52.2569C33.0247 52.7495 31.5903 53.3027 30.467 53.8904C29.482 54.409 28.7216 54.9709 28.1427 55.6018C27.0712 56.7686 26.8466 57.9441 26.8466 58.7306C26.8466 58.843 26.8552 58.964 26.8639 59.0764V64.9538H26.4232C22.8805 64.9538 19.9945 67.8406 19.9945 71.3843V73.2772C19.9945 76.8209 22.8805 79.7077 26.4232 79.7077H37.8116C38.0622 79.7077 38.3041 79.6905 38.546 79.6645C38.8312 84.0812 42.2875 87.5817 46.4955 87.5817H50.4961V98.161H46.3313C41.7345 90.0277 35.5218 88.2732 31.0373 88.2732H21.7745C18.5342 88.2732 15.4409 89.4746 12.5895 91.8515C10.0405 93.969 7.76797 96.951 5.85838 100.711C2.0824 108.127 0 117.919 0 128.283C0 138.646 2.0824 148.439 5.84974 155.846C7.76797 159.606 10.0318 162.588 12.5808 164.705C15.4409 167.082 18.5342 168.283 21.7659 168.283H31.0287C36.4896 168.283 41.5876 164.792 45.5191 158.396H77.9821C78.0599 158.56 78.129 158.733 78.2067 158.897C82.0691 167.341 87.4695 171.991 93.4143 171.991H102.297C108.242 171.991 113.642 167.341 117.505 158.897C121.039 151.161 122.991 140.945 122.991 130.132C123 119.32 121.047 109.103 117.513 101.368ZM100.145 71.3843V73.2772C100.145 73.6748 99.8257 73.9946 99.4282 73.9946H88.6706C90.5715 73.5019 92.1614 72.9574 93.4143 72.361C94.4771 71.8597 95.3326 71.2979 95.9979 70.6756H99.4369C99.8257 70.6669 100.145 70.9867 100.145 71.3843ZM89.7939 58.3071C90.2173 58.4627 90.5715 58.6096 90.8567 58.7479C90.5715 58.8776 90.2173 59.0245 89.7939 59.1887V58.3071ZM62.2301 68.1172C71.0955 68.1172 79.4596 67.4171 85.776 66.1465C88.1867 65.6625 90.2259 65.1093 91.8763 64.4957V65.6366C91.4097 66.0342 91.0727 66.5787 90.9431 67.201C89.7334 67.7801 87.3399 68.6185 82.8036 69.3877C77.0921 70.3644 69.7907 70.9003 62.2301 70.9003C54.6695 70.9003 47.3682 70.3644 41.6567 69.3877C35.349 68.3073 33.1975 67.1146 32.5753 66.6651V64.4957C34.2257 65.1093 36.2735 65.6625 38.6757 66.1465C45.0006 67.4257 53.3648 68.1172 62.2301 68.1172ZM34.7442 59.206C34.2776 59.0332 33.8887 58.8776 33.5863 58.7306C33.8974 58.5837 34.2776 58.4281 34.7442 58.2553V59.206ZM25.7146 73.2772V71.3843C25.7146 70.9867 26.0344 70.6669 26.4318 70.6669H28.2723C28.3414 70.6669 28.4019 70.6669 28.471 70.6583C29.1277 71.2806 29.9918 71.8424 31.0632 72.3524C32.3161 72.9487 33.906 73.4933 35.807 73.9859H26.4232C26.0344 73.9859 25.7146 73.6661 25.7146 73.2772ZM44.2403 79.0768V75.5504C49.5715 76.2418 55.7669 76.6135 62.2301 76.6135C69.2636 76.6135 75.9774 76.1727 81.6112 75.3602V79.0768C81.6112 80.5893 80.5829 81.8685 79.3559 81.8685H46.4955C45.2771 81.8685 44.2403 80.5893 44.2403 79.0768ZM56.2076 87.5817H67.4059V98.161H56.2076V87.5817ZM10.9391 153.262C7.56923 146.641 5.71149 137.773 5.71149 128.291C5.71149 118.81 7.56923 109.942 10.9391 103.321C12.4771 100.305 14.309 97.8585 16.2272 96.2595C17.2036 95.447 18.2059 94.8506 19.2082 94.479C17.7047 96.2249 16.3395 98.3166 15.1125 100.728C11.3366 108.135 9.2628 117.928 9.2628 128.291C9.2628 138.654 11.3452 148.447 15.1125 155.854C16.3395 158.266 17.7134 160.358 19.2082 162.104C18.2059 161.732 17.2036 161.135 16.2272 160.323C14.309 158.715 12.4771 156.278 10.9391 153.262ZM31.0373 162.579C29.1709 162.579 27.3045 161.818 25.4986 160.314C23.5718 158.715 21.7399 156.278 20.2105 153.253C16.8407 146.632 14.9829 137.764 14.9829 128.283C14.9829 118.801 16.8407 109.933 20.2105 103.312C21.7486 100.296 23.5804 97.8498 25.4986 96.2509C27.3045 94.7469 29.1709 93.9863 31.0373 93.9863C34.6577 93.9863 37.6388 95.6199 40.0668 98.9475C39.1163 99.4143 38.1054 100.123 37.0858 101.195C35.5477 102.828 34.1912 105.102 33.0679 107.936C30.8904 113.416 29.6894 120.633 29.6894 128.274C29.6894 135.915 30.8904 143.132 33.0679 148.611C34.1998 151.446 35.5477 153.72 37.0858 155.353C37.8721 156.192 38.6584 156.805 39.4101 157.255C36.8525 160.712 33.9492 162.579 31.0373 162.579ZM43.3935 152.691C42.2183 152.691 40.1964 151.075 38.3732 146.503C36.455 141.68 35.4008 135.206 35.4008 128.283C35.4008 121.359 36.455 114.886 38.3732 110.063C40.1878 105.499 42.2097 103.874 43.3935 103.874H72.7977C72.0719 105.058 71.3979 106.424 70.793 107.945C68.6156 113.425 67.4145 120.642 67.4145 128.283C67.4145 135.923 68.6156 143.14 70.793 148.62C71.3979 150.141 72.0719 151.507 72.7977 152.691H43.3935ZM83.4084 156.529C80.2027 149.528 78.44 140.158 78.44 130.141C78.44 120.123 80.2027 110.754 83.4084 103.753C85.6723 98.8092 88.4459 95.5508 91.2628 94.4271C89.7334 96.3286 88.3336 98.6537 87.0894 101.376C83.5553 109.112 81.6025 119.328 81.6025 130.141C81.6025 140.962 83.5467 151.178 87.0894 158.906C88.3336 161.62 89.7334 163.945 91.2628 165.855C88.4459 164.731 85.6723 161.473 83.4084 156.529ZM112.32 156.529C109.486 162.726 105.84 166.287 102.306 166.287C98.7716 166.287 95.1252 162.734 92.291 156.529C89.0854 149.528 87.3227 140.158 87.3227 130.141C87.3227 120.123 89.0854 110.754 92.291 103.753C95.1252 97.556 98.7716 93.995 102.306 93.995C105.84 93.995 109.486 97.5473 112.32 103.753C115.526 110.754 117.289 120.123 117.289 130.141C117.289 140.158 115.517 149.528 112.32 156.529Z" fill="white"/>
</svg>
