<svg viewBox="0 0 303 130" fill="none" xmlns="http://www.w3.org/2000/svg">
<path d="M301.591 21.3985C299.711 10.8785 292.721 3.57846 281.911 0.858464C271.581 -1.74154 262.211 1.60847 255.541 10.3085C249.081 18.7385 248.051 28.3285 252.601 37.4085C242.701 46.0885 232.681 54.9285 222.981 63.4885C219.401 66.6485 215.831 69.7985 212.251 72.9585C200.001 62.1285 190.331 61.5285 176.621 70.6485L172.541 67.0385C161.171 56.9985 149.411 46.6185 137.921 36.3285C137.861 36.1585 137.801 35.8885 137.791 35.6685C137.481 28.1585 133.711 21.1385 127.471 16.3985C121.251 11.6785 113.511 9.94846 106.221 11.6585C93.5006 14.6385 85.4806 25.3385 85.8006 38.9185C85.8106 39.1485 85.8006 39.3085 85.8006 39.4285C69.8606 53.3585 54.0306 67.2885 38.7306 80.8385C32.6006 77.3885 25.9806 76.4085 19.5206 78.0185C7.34064 81.0485 -1.33936 93.9685 0.170644 106.818C1.60064 118.938 12.7606 128.808 25.5806 129.288C25.8906 129.298 26.2006 129.308 26.5106 129.308C34.6506 129.308 42.3306 125.298 47.1906 118.448C52.2506 111.328 53.4406 102.328 50.3906 94.3385C61.2606 84.8385 72.2706 75.1385 82.9206 65.7685C86.6906 62.4485 90.4606 59.1285 94.2306 55.8085C107.441 66.1385 118.461 65.6385 130.901 54.1185C133.781 56.6585 136.651 59.2085 139.521 61.7485C147.621 68.9285 155.991 76.3485 164.351 83.5385C167.971 86.6485 168.321 87.5285 167.801 89.3485C167.581 90.1185 167.601 90.7785 167.631 91.0985C167.981 105.298 178.781 116.008 192.811 116.028C192.821 116.028 192.841 116.028 192.851 116.028C208.111 116.028 218.721 106.058 219.261 91.2285C219.271 91.0685 219.391 90.7585 219.491 90.6085C228.221 82.8385 237.121 74.9685 245.741 67.3585C252.411 61.4685 259.091 55.5785 265.751 49.6685C275.131 53.7485 284.201 52.6185 291.981 46.4185C300.041 39.9685 303.371 31.3185 301.591 21.3985ZM275.531 34.2085C273.801 34.2085 272.071 33.4285 270.641 31.9985C268.881 30.2385 267.881 27.7985 267.891 25.3185C267.901 23.6085 268.741 21.8085 270.201 20.3685C271.821 18.7685 273.931 17.8585 275.991 17.8585C276.021 17.8585 276.051 17.8585 276.071 17.8585C280.431 17.9085 284.111 21.6985 284.101 26.1385C284.091 30.4985 280.171 34.1985 275.551 34.2185C275.541 34.2085 275.531 34.2085 275.531 34.2085ZM187.801 84.4485C189.271 82.9785 191.181 82.1885 193.231 82.1885C197.771 82.2085 201.481 85.7885 201.501 90.1585C201.511 92.2985 200.611 94.4285 199.041 95.9985C197.521 97.5185 195.581 98.3485 193.571 98.3485C193.561 98.3485 193.551 98.3485 193.551 98.3485C188.951 98.3285 185.351 94.8485 185.361 90.4185C185.351 88.1385 186.221 86.0185 187.801 84.4485ZM34.3306 103.428C34.3406 107.488 30.6506 110.988 26.2806 111.088C24.0706 111.158 22.1106 110.408 20.6406 108.988C19.0406 107.448 18.1506 105.198 18.1106 102.648C18.0506 98.4185 20.8306 95.7485 25.3506 95.6685C27.8906 95.6385 30.3306 96.5685 32.0506 98.2585C33.5206 99.6885 34.3306 101.518 34.3306 103.428ZM103.631 36.4385C103.601 34.8385 104.401 33.0985 105.821 31.6585C107.561 29.8885 109.971 28.8285 112.271 28.8285C112.271 28.8285 112.271 28.8285 112.281 28.8285C115.811 28.8285 119.881 32.8885 119.911 36.4485C119.931 38.8585 118.981 41.1885 117.311 42.8485C115.761 44.3885 113.751 45.2185 111.641 45.1885C107.301 45.1385 103.711 41.2085 103.631 36.4385Z" fill="white"/>
</svg>
