<svg width="56" height="183" viewBox="0 0 56 183" fill="none" xmlns="http://www.w3.org/2000/svg">
<path d="M53.3109 25.7006L49.0944 24.9267C48.5339 24.8219 47.9571 24.9751 47.5184 25.3378C47.0796 25.7006 46.8278 26.2327 46.8278 26.8051V28.5948H45.203V10.7623C45.203 7.48123 42.5626 4.58709 37.7775 2.61198C33.6829 0.927093 28.2884 0 22.6015 0C16.9064 0 11.5201 0.927093 7.4255 2.62004C2.64036 4.59515 0 7.4893 0 10.7623C0 11.0203 0.0406209 11.2622 0.113739 11.4959C0.0406209 11.7297 0 11.9716 0 12.2296V51.893C0 53.0781 0.422458 54.8597 2.46163 56.5688C3.70463 57.6168 5.41071 58.5358 7.53924 59.2936C9.26157 59.9063 11.2195 60.4061 13.3399 60.777V87.9529C13.3399 88.5172 13.5349 89.0573 13.8842 89.4926L16.4515 92.6851V102.27L5.54882 167.336C5.32946 167.707 5.19948 168.134 5.19948 168.602V169.626C5.19948 169.932 5.25635 170.222 5.35384 170.488C5.58131 171.859 6.06877 173.189 6.79994 174.463C7.79109 176.18 9.18845 177.712 10.9595 179.018C14.4529 181.581 19.0593 182.992 23.9257 182.992C28.7921 182.992 33.3985 181.581 36.8919 179.018C38.663 177.72 40.0603 176.188 41.0515 174.463C41.7827 173.189 42.2701 171.859 42.4976 170.488C42.6032 170.222 42.652 169.924 42.652 169.618V168.594C42.652 167.231 41.539 166.119 40.1578 166.119C38.7849 166.119 37.6637 167.223 37.6637 168.594C37.6637 170.972 36.3314 173.262 33.9185 175.035C31.2781 176.978 27.7278 178.042 23.9176 178.042C20.1074 178.042 16.5571 176.978 13.9167 175.035C11.7963 173.479 10.5127 171.528 10.2283 169.464L21.3829 102.867C21.4072 102.73 21.4153 102.601 21.4153 102.464V91.8063C21.4153 91.7983 21.4153 91.7902 21.4153 91.7741C21.4153 91.7499 21.4153 91.7177 21.4153 91.6935C21.4153 91.6774 21.4153 91.6612 21.4153 91.6451C21.4153 91.6209 21.4153 91.5967 21.4072 91.5645C21.4072 91.5484 21.4072 91.5322 21.3991 91.5161C21.3991 91.4919 21.391 91.4678 21.391 91.4436C21.391 91.4274 21.3829 91.4113 21.3829 91.3952C21.3829 91.371 21.3747 91.3468 21.3747 91.3307C21.3747 91.3146 21.3666 91.2985 21.3666 91.2743C21.3585 91.2501 21.3585 91.234 21.3504 91.2098C21.3422 91.1937 21.3422 91.1695 21.3341 91.1534C21.326 91.1292 21.326 91.113 21.3179 91.0889C21.3097 91.0727 21.3097 91.0485 21.3016 91.0324C21.2935 91.0163 21.2854 90.9921 21.2854 90.976C21.2772 90.9599 21.2691 90.9357 21.261 90.9196C21.2529 90.9034 21.2447 90.8792 21.2366 90.8631C21.2285 90.847 21.2204 90.8228 21.2122 90.8067C21.2041 90.7906 21.196 90.7745 21.1879 90.7503C21.1797 90.7341 21.1716 90.71 21.1635 90.6938C21.1554 90.6777 21.1473 90.6616 21.1391 90.6455C21.131 90.6293 21.1148 90.6052 21.1066 90.589C21.0985 90.5729 21.0904 90.5568 21.0823 90.5407C21.0741 90.5165 21.0579 90.5004 21.0416 90.4762C21.0335 90.4601 21.0254 90.452 21.0173 90.4359C21.001 90.4117 20.9929 90.3956 20.9766 90.3714C20.9685 90.3552 20.9604 90.3472 20.9523 90.3311C20.936 90.3069 20.9198 90.2908 20.9035 90.2666C20.8954 90.2585 20.8873 90.2504 20.8873 90.2424L18.32 87.05V61.3816C19.7174 61.4864 21.1473 61.5348 22.6015 61.5348C25.0387 61.5348 27.4191 61.3896 29.6614 61.0994V87.058L27.4354 89.8232C26.8261 90.2746 26.428 91.0002 26.428 91.8144V102.472C26.428 102.609 26.4361 102.746 26.4605 102.875L32.2611 137.516C32.4642 138.725 33.5204 139.588 34.7146 139.588C34.8527 139.588 34.9909 139.58 35.129 139.556C36.4857 139.33 37.4037 138.056 37.1763 136.71L31.4081 102.27V92.8141L34.0972 89.4685C34.4465 89.0331 34.6415 88.4849 34.6415 87.9287V60.4384C34.6415 60.3578 34.6334 60.2771 34.6253 60.1965C35.6977 59.9305 36.7132 59.6322 37.6556 59.2936C39.7841 58.5358 41.4902 57.6168 42.7332 56.5688C44.7643 54.8516 45.1948 53.0781 45.1948 51.893V33.5366H46.8197V35.3263C46.8197 35.8906 47.0715 36.4307 47.5102 36.7935C47.8596 37.0837 48.2901 37.2369 48.737 37.2369C48.8507 37.2369 48.9726 37.2288 49.0863 37.2046L53.3028 36.4307C54.8626 36.1405 55.9919 34.7942 55.9919 33.2222V28.9172C56 27.3371 54.8626 25.9828 53.3109 25.7006ZM4.98825 10.7623C4.98825 9.87555 6.33686 8.42445 9.34281 7.18295C12.8362 5.73991 17.5482 4.94987 22.6015 4.94987C27.6547 4.94987 32.3586 5.74797 35.8601 7.19101C38.8661 8.43251 40.2147 9.88361 40.2147 10.7704V19.1142H4.98825V12.2296C4.98825 11.9716 4.94763 11.7297 4.87451 11.4959C4.94763 11.2622 4.98825 11.0203 4.98825 10.7623ZM35.9739 54.634C32.4399 55.8916 27.6872 56.5929 22.6015 56.5929C17.5157 56.5929 12.7631 55.8996 9.22907 54.634C5.7438 53.3925 4.98825 52.1348 4.98825 51.8849V24.056H40.2147V51.8849C40.2147 52.1348 39.4592 53.3925 35.9739 54.634ZM52.1573 32.7626L50.6624 33.0367V29.0865L52.1573 29.3606V32.7626Z" fill="white"/>
</svg>
