<svg width="139" height="183" viewBox="0 0 139 183" fill="none" xmlns="http://www.w3.org/2000/svg">
<path d="M135.519 42.9926C134.372 41.2951 133.006 39.9496 131.476 38.9953C129.798 37.947 127.996 37.4151 126.13 37.4151C123.726 37.4151 121.393 38.3147 119.371 40.02C118.099 41.0995 116.968 42.4841 116.039 44.1034L101.554 38.08C100.453 37.6185 99.2902 37.3916 98.0961 37.3916H91.267V27.0346C91.267 25.697 90.19 24.6096 88.8632 24.594C89.8154 23.9447 90.6817 23.1155 91.4309 22.1143C93.2728 19.6815 94.2874 16.482 94.2874 13.1027C94.2874 9.72339 93.2728 6.52398 91.4309 4.09118C90.4866 2.83957 89.3705 1.85394 88.114 1.14991C87.0135 0.531931 85.8506 0.164273 84.6409 0.0469351V0H75.6891C74.1828 0 72.7233 0.383303 71.3653 1.14991C70.1088 1.85394 68.9927 2.83957 68.0483 4.09118C66.2065 6.52398 65.1919 9.72339 65.1919 13.1027C65.1919 16.482 66.2065 19.6815 68.0483 22.1143C68.8054 23.1077 69.6639 23.9369 70.6161 24.594H67.6269C66.2845 24.594 65.1919 25.6892 65.1919 27.0346V37.3916H51.6275C50.1446 37.3916 48.6695 37.7593 47.3583 38.4633L27.1288 49.3366C25.6303 50.1423 24.3894 51.3548 23.5465 52.8411C23.1953 53.4591 22.9221 54.1162 22.727 54.7967H12.7761V44.9404C12.7761 42.5389 10.825 40.5832 8.42897 40.5832C7.2895 40.5832 5.61151 41.0448 4.08961 43.2507C3.23111 44.5023 2.47406 46.2233 1.84969 48.3588C0.655587 52.4656 0 57.871 0 63.5893C0 69.3075 0.655587 74.7129 1.84969 78.8119C2.47406 80.9474 3.2233 82.6684 4.08961 83.92C5.61151 86.1259 7.2895 86.5875 8.42897 86.5875H9.23285C11.6289 86.5875 13.58 84.6318 13.58 82.2303V73.031H23.4762C23.9211 73.031 24.3348 72.9137 24.686 72.7103C25.841 74.2201 27.48 75.3621 29.3999 75.9097L29.8292 76.0271L29.9307 79.1404C29.9541 79.7975 29.5795 80.4077 28.9785 80.6815L19.2227 85.1716C16.8892 86.2511 15.3985 88.6057 15.4375 91.1871L15.9136 125.614C15.9292 126.952 17.0218 128.023 18.3486 128.023C18.3564 128.023 18.372 128.023 18.3798 128.023C19.7222 128.008 20.7993 126.897 20.7837 125.551L20.3076 91.1245C20.2998 90.4752 20.6744 89.8886 21.2597 89.6148L31.0155 85.1246C33.4037 84.0295 34.8866 81.6202 34.8007 78.984L34.7461 77.4195L52.1582 82.3242C52.1972 82.332 52.2362 82.3476 52.2752 82.3555C52.3299 83.0282 52.6577 83.6775 53.2352 84.1155L56.88 86.8769V139.092C56.88 141.204 57.996 143.207 59.7989 144.318C60.7745 144.92 61.8827 145.225 62.9988 145.225C63.6544 145.225 64.3177 145.116 64.9577 144.904L81.8001 139.202C82.8927 138.834 83.8605 138.161 84.5941 137.262L89.9247 130.691C90.7675 129.65 91.2514 128.336 91.2905 126.999L92.6329 80.4077C92.6563 79.5394 92.227 78.7649 91.5636 78.3112L98.4005 77.4899C99.5946 77.3491 100.726 76.9736 101.772 76.3869L110.997 71.1615L111.044 72.2097C111.106 73.5943 111.567 74.9241 112.379 76.0427L115.547 80.4624C115.836 80.8614 115.984 81.3464 115.969 81.8392L114.314 139.022C114.275 140.359 113.838 141.635 113.042 142.714L98.0883 163.029C97.9478 163.217 97.7605 163.365 97.5419 163.452L60.4857 178.033C60.1969 178.15 59.8769 178.15 59.5882 178.041L22.2431 163.85C21.6734 163.631 21.2988 163.1 21.291 162.489C21.2754 161.152 20.1827 160.08 18.8559 160.08C18.8481 160.08 18.8325 160.08 18.8247 160.08C17.4823 160.096 16.4053 161.206 16.4209 162.552C16.4365 163.835 16.8345 165.063 17.5682 166.111C18.3018 167.159 19.3164 167.957 20.5183 168.411L57.8555 182.601C58.5579 182.867 59.2916 183 60.0252 183C60.7823 183 61.5393 182.859 62.2651 182.578L99.3292 167.981C100.398 167.558 101.327 166.846 102.014 165.916L116.968 145.601C118.349 143.723 119.122 141.486 119.192 139.155L120.846 81.9722C120.893 80.4155 120.417 78.8666 119.512 77.6072L116.343 73.1875C116.086 72.8355 115.945 72.413 115.922 71.9828L115.852 70.4809C115.82 69.8316 115.539 69.2528 115.11 68.8303L116.952 67.7899C117.834 69.0259 118.841 70.0819 119.941 70.9033C121.814 72.3114 123.961 73.0545 126.13 73.0545C128.003 73.0545 129.798 72.5226 131.476 71.4743C133.006 70.52 134.372 69.1745 135.519 67.477C137.759 64.1681 139 59.8188 139 55.227C139 50.643 137.759 46.2937 135.519 42.9926ZM84.2117 4.90472C87.076 5.23326 89.4095 8.85509 89.4095 13.0949C89.4095 17.3347 87.0682 20.9565 84.2117 21.2851C81.3474 20.9565 79.0138 17.3347 79.0138 13.0949C79.0138 8.85509 81.3552 5.24109 84.2117 4.90472ZM75.6891 4.88125H76.4461C74.9554 7.19672 74.1437 10.0832 74.1437 13.1027C74.1437 16.1222 74.9554 19.0009 76.4461 21.3164H75.6891C72.6375 21.3164 70.0619 17.5537 70.0619 13.1027C70.0619 8.6517 72.6375 4.88125 75.6891 4.88125ZM70.0619 29.4753H86.397V37.3916H70.0619V29.4753ZM8.70994 68.1498V81.7062H8.58506C8.20264 81.4168 7.16463 80.0244 6.25929 76.4338C5.36957 72.8902 4.87788 68.3297 4.87788 63.5893C4.87788 58.8488 5.36957 54.2805 6.25929 50.7447C6.82122 48.5231 7.42998 47.1463 7.90606 46.3484V59.6858H22.4773L22.8363 67.6179C22.8441 67.7978 22.8597 67.9777 22.8753 68.1576H8.70994V68.1498ZM87.7706 80.259L86.4282 126.85C86.4204 127.124 86.3189 127.39 86.1472 127.601L80.8167 134.172C80.6684 134.352 80.4733 134.493 80.2469 134.571L63.4046 140.273C63.0534 140.391 62.671 140.352 62.351 140.156C61.9842 139.929 61.7578 139.522 61.7578 139.092V84.4519L58.8233 82.2225L88.4027 78.6867C88.0281 79.1013 87.7862 79.6489 87.7706 80.259ZM99.376 72.1314C98.8921 72.4052 98.3692 72.5773 97.8229 72.6399L55.1005 77.748C54.5542 77.8106 54.0079 77.7715 53.485 77.6228L30.7189 71.2084C28.9941 70.7234 27.7766 69.1902 27.6907 67.391L27.2381 57.5033C27.1678 55.9154 28.0263 54.3978 29.4234 53.6468L49.6529 42.7735C50.2538 42.4528 50.9328 42.2807 51.6197 42.2807H98.0883C98.6346 42.2807 99.1731 42.3902 99.6804 42.6014L116.218 49.4774C117.771 50.1267 118.778 51.6364 118.778 53.3261V58.7236C118.778 60.2099 117.982 61.5945 116.687 62.3377C116.679 62.3377 116.679 62.3455 116.671 62.3455C116.609 62.3768 116.546 62.4159 116.484 62.455L99.376 72.1314ZM126.122 68.1732C124.288 68.1732 122.462 67.0546 121.018 65.099C122.681 63.425 123.656 61.133 123.656 58.708V53.3105C123.656 50.5569 122.423 48.0224 120.378 46.3328C121.892 43.8061 123.992 42.2964 126.122 42.2964C130.462 42.2964 134.122 48.218 134.122 55.2348C134.122 62.2516 130.462 68.1732 126.122 68.1732Z" fill="white"/>
</svg>
