<svg viewBox="0 0 131 176" fill="none" xmlns="http://www.w3.org/2000/svg">
<path d="M113.12 176H17.8804C8.02074 176 0 167.331 0 156.684C0 152.239 3.33308 148.628 7.45428 148.628C11.5755 148.628 14.9086 152.23 14.9086 156.684C14.9086 158.423 16.2714 159.896 17.8804 159.896H113.128C114.737 159.896 116.1 158.423 116.1 156.684V19.3249C116.1 17.5858 114.737 16.1129 113.128 16.1129H17.8804C16.2714 16.1129 14.9086 17.5858 14.9086 19.3249V97.3519C14.9086 101.797 11.5755 105.408 7.45428 105.408C3.33308 105.408 0 101.797 0 97.3519V19.3249C0 8.66868 8.02074 0 17.8804 0H113.128C122.987 0 131.008 8.66868 131.008 19.3249V156.684C131 167.331 122.979 176 113.12 176Z" fill="white"/>
<path d="M90.1 102.924H40.9001C36.2534 102.924 32.4771 98.8425 32.4771 93.8205V40.6372C32.4771 35.6152 36.2534 31.5338 40.9001 31.5338H90.1082C94.7548 31.5338 98.5312 35.6152 98.5312 40.6372V93.8205C98.523 98.8425 94.7466 102.924 90.1 102.924ZM40.9001 37.9843C39.5455 37.9843 38.4372 39.1732 38.4372 40.6461V93.8294C38.4372 95.2934 39.5373 96.4912 40.9001 96.4912H90.1082C91.4628 96.4912 92.571 95.3023 92.571 93.8294V40.6372C92.571 39.1732 91.471 37.9754 90.1082 37.9754H40.9001V37.9843Z" fill="white"/>
<path d="M82.2188 73.4842H48.7813C47.4842 73.4842 46.4333 72.3485 46.4333 70.9466V50.9474C46.4333 49.5455 47.4842 48.4098 48.7813 48.4098H82.2106C83.5077 48.4098 84.5586 49.5455 84.5586 50.9474V70.9554C84.5586 72.3485 83.5077 73.4842 82.2188 73.4842ZM82.2106 50.9474L48.7895 50.9562L48.7977 70.9554L82.2188 70.9466L82.2106 50.9474Z" fill="white"/>
<path d="M46.2034 90.3779C42.9606 90.3779 40.3171 87.5297 40.3171 84.0161C40.3171 80.5114 42.9524 77.6544 46.2034 77.6544C49.4544 77.6544 52.0897 80.5025 52.0897 84.0161C52.0897 87.5209 49.4462 90.3779 46.2034 90.3779ZM46.2034 80.2008C44.2577 80.2008 42.6733 81.9133 42.6733 84.0161C42.6733 86.119 44.2577 87.8314 46.2034 87.8314C48.1491 87.8314 49.7335 86.119 49.7335 84.0161C49.7335 81.9133 48.1491 80.2008 46.2034 80.2008Z" fill="white"/>
<path d="M58.9119 90.3779C55.6691 90.3779 53.0256 87.5297 53.0256 84.0161C53.0256 80.5114 55.6609 77.6544 58.9119 77.6544C62.1629 77.6544 64.7982 80.5025 64.7982 84.0161C64.7899 87.5209 62.1547 90.3779 58.9119 90.3779ZM58.9119 80.2008C56.9662 80.2008 55.3818 81.9133 55.3818 84.0161C55.3818 86.119 56.9662 87.8314 58.9119 87.8314C60.8576 87.8314 62.442 86.119 62.442 84.0161C62.442 81.9133 60.8576 80.2008 58.9119 80.2008Z" fill="white"/>
<path d="M71.6201 90.3779C68.3774 90.3779 65.7339 87.5297 65.7339 84.0161C65.7339 80.5114 68.3692 77.6544 71.6201 77.6544C74.8629 77.6544 77.5064 80.5025 77.5064 84.0161C77.4982 87.5209 74.8629 90.3779 71.6201 90.3779ZM71.6201 80.2008C69.6745 80.2008 68.09 81.9133 68.09 84.0161C68.09 86.119 69.6745 87.8314 71.6201 87.8314C73.5658 87.8314 75.1503 86.119 75.1503 84.0161C75.1503 81.9133 73.5658 80.2008 71.6201 80.2008Z" fill="white"/>
<path d="M84.7967 90.3779C81.5539 90.3779 78.9104 87.5297 78.9104 84.0161C78.9104 80.5114 81.5457 77.6544 84.7967 77.6544C88.0394 77.6544 90.6829 80.5025 90.6829 84.0161C90.6829 87.5209 88.0394 90.3779 84.7967 90.3779ZM84.7967 80.2008C82.851 80.2008 81.2665 81.9133 81.2665 84.0161C81.2665 86.119 82.851 87.8314 84.7967 87.8314C86.7423 87.8314 88.3268 86.119 88.3268 84.0161C88.3268 81.9133 86.7423 80.2008 84.7967 80.2008Z" fill="white"/>
</svg>
