<svg viewBox="0 0 208 167" fill="none" xmlns="http://www.w3.org/2000/svg">
<path d="M130.315 21.2845H124.86C123.151 21.2845 121.757 22.6735 121.757 24.3756V29.8111C121.757 31.5132 123.151 32.9022 124.86 32.9022H130.315C132.024 32.9022 133.418 31.5132 133.418 29.8111V24.3756C133.418 22.6654 132.032 21.2845 130.315 21.2845ZM131.081 29.8031C131.081 30.2206 130.734 30.5658 130.315 30.5658H124.86C124.441 30.5658 124.094 30.2206 124.094 29.8031V24.3676C124.094 23.9501 124.441 23.6048 124.86 23.6048H130.315C130.734 23.6048 131.081 23.9501 131.081 24.3676V29.8031Z" fill="white"/>
<path d="M133.442 38.402C133.442 36.6998 132.048 35.3109 130.339 35.3109H124.868C123.159 35.3109 121.765 36.6998 121.765 38.402V43.8535C121.765 45.5557 123.159 46.9447 124.868 46.9447H130.339C132.048 46.9447 133.442 45.5557 133.442 43.8535V38.402ZM131.105 43.8535C131.105 44.271 130.759 44.6163 130.339 44.6163H124.868C124.449 44.6163 124.102 44.271 124.102 43.8535V38.402C124.102 37.9845 124.449 37.6392 124.868 37.6392H130.339C130.759 37.6392 131.105 37.9845 131.105 38.402V43.8535Z" fill="white"/>
<path d="M133.442 52.4685C133.442 50.7664 132.048 49.3774 130.339 49.3774H124.868C123.159 49.3774 121.765 50.7664 121.765 52.4685V57.9201C121.765 59.6222 123.159 61.0112 124.868 61.0112H130.339C132.048 61.0112 133.442 59.6222 133.442 57.9201V52.4685ZM131.105 57.9201C131.105 58.3376 130.759 58.6828 130.339 58.6828H124.868C124.449 58.6828 124.102 58.3376 124.102 57.9201V52.4685C124.102 52.051 124.449 51.7057 124.868 51.7057H130.339C130.759 51.7057 131.105 52.051 131.105 52.4685V57.9201Z" fill="white"/>
<path d="M130.339 63.6768H124.868C123.159 63.6768 121.765 65.0658 121.765 66.7679V72.2194C121.765 73.9216 123.159 75.3106 124.868 75.3106H130.339C132.048 75.3106 133.442 73.9216 133.442 72.2194V66.7679C133.442 65.0577 132.048 63.6768 130.339 63.6768ZM131.105 72.2114C131.105 72.6289 130.759 72.9742 130.339 72.9742H124.868C124.449 72.9742 124.102 72.6289 124.102 72.2114V66.7598C124.102 66.3423 124.449 65.9971 124.868 65.9971H130.339C130.759 65.9971 131.105 66.3423 131.105 66.7598V72.2114Z" fill="white"/>
<path d="M144.684 21.2845H139.228C137.52 21.2845 136.125 22.6735 136.125 24.3756V29.8111C136.125 31.5132 137.52 32.9022 139.228 32.9022H144.684C146.392 32.9022 147.786 31.5132 147.786 29.8111V24.3756C147.786 22.6654 146.4 21.2845 144.684 21.2845ZM145.449 29.8031C145.449 30.2206 145.103 30.5658 144.684 30.5658H139.228C138.809 30.5658 138.462 30.2206 138.462 29.8031V24.3676C138.462 23.9501 138.809 23.6048 139.228 23.6048H144.684C145.103 23.6048 145.449 23.9501 145.449 24.3676V29.8031Z" fill="white"/>
<path d="M147.835 38.402C147.835 36.6998 146.44 35.3109 144.732 35.3109H139.26C137.552 35.3109 136.158 36.6998 136.158 38.402V43.8535C136.158 45.5557 137.552 46.9447 139.26 46.9447H144.732C146.44 46.9447 147.835 45.5557 147.835 43.8535V38.402ZM145.498 43.8535C145.498 44.271 145.151 44.6163 144.732 44.6163H139.26C138.841 44.6163 138.495 44.271 138.495 43.8535V38.402C138.495 37.9845 138.841 37.6392 139.26 37.6392H144.732C145.151 37.6392 145.498 37.9845 145.498 38.402V43.8535Z" fill="white"/>
<path d="M147.835 52.4685C147.835 50.7664 146.44 49.3774 144.732 49.3774H139.26C137.552 49.3774 136.158 50.7664 136.158 52.4685V57.9201C136.158 59.6222 137.552 61.0112 139.26 61.0112H144.732C146.44 61.0112 147.835 59.6222 147.835 57.9201V52.4685ZM145.498 57.9201C145.498 58.3376 145.151 58.6828 144.732 58.6828H139.26C138.841 58.6828 138.495 58.3376 138.495 57.9201V52.4685C138.495 52.051 138.841 51.7057 139.26 51.7057H144.732C145.151 51.7057 145.498 52.051 145.498 52.4685V57.9201Z" fill="white"/>
<path d="M144.732 63.6768H139.26C137.552 63.6768 136.158 65.0658 136.158 66.7679V72.2194C136.158 73.9216 137.552 75.3106 139.26 75.3106H144.732C146.44 75.3106 147.835 73.9216 147.835 72.2194V66.7679C147.835 65.0577 146.44 63.6768 144.732 63.6768ZM145.498 72.2114C145.498 72.6289 145.151 72.9742 144.732 72.9742H139.26C138.841 72.9742 138.495 72.6289 138.495 72.2114V66.7598C138.495 66.3423 138.841 65.9971 139.26 65.9971H144.732C145.151 65.9971 145.498 66.3423 145.498 66.7598V72.2114Z" fill="white"/>
<path d="M159.802 21.2845H154.346C152.638 21.2845 151.243 22.6735 151.243 24.3756V29.8111C151.243 31.5132 152.638 32.9022 154.346 32.9022H159.802C161.51 32.9022 162.904 31.5132 162.904 29.8111V24.3756C162.904 22.6654 161.51 21.2845 159.802 21.2845ZM160.567 29.8031C160.567 30.2206 160.221 30.5658 159.802 30.5658H154.346C153.927 30.5658 153.58 30.2206 153.58 29.8031V24.3676C153.58 23.9501 153.927 23.6048 154.346 23.6048H159.802C160.221 23.6048 160.567 23.9501 160.567 24.3676V29.8031Z" fill="white"/>
<path d="M159.842 35.2868H154.386C152.678 35.2868 151.284 36.6758 151.284 38.3779V43.8134C151.284 45.5156 152.678 46.9045 154.386 46.9045H159.842C161.55 46.9045 162.944 45.5156 162.944 43.8134V38.3779C162.944 36.6678 161.55 35.2868 159.842 35.2868ZM160.607 43.8054C160.607 44.2229 160.261 44.5681 159.842 44.5681H154.386C153.967 44.5681 153.621 44.2229 153.621 43.8054V38.3779C153.621 37.9604 153.967 37.6152 154.386 37.6152H159.842C160.261 37.6152 160.607 37.9604 160.607 38.3779V43.8054Z" fill="white"/>
<path d="M162.977 52.4685C162.977 50.7664 161.583 49.3774 159.874 49.3774H154.402C152.694 49.3774 151.3 50.7664 151.3 52.4685V57.9201C151.3 59.6222 152.694 61.0112 154.402 61.0112H159.874C161.583 61.0112 162.977 59.6222 162.977 57.9201V52.4685ZM160.64 57.9201C160.64 58.3376 160.293 58.6828 159.874 58.6828H154.402C153.983 58.6828 153.637 58.3376 153.637 57.9201V52.4685C153.637 52.051 153.983 51.7057 154.402 51.7057H159.874C160.293 51.7057 160.64 52.051 160.64 52.4685V57.9201Z" fill="white"/>
<path d="M159.882 63.6768H154.41C152.702 63.6768 151.308 65.0658 151.308 66.7679V72.2194C151.308 73.9216 152.702 75.3106 154.41 75.3106H159.882C161.591 75.3106 162.985 73.9216 162.985 72.2194V66.7679C162.977 65.0577 161.591 63.6768 159.882 63.6768ZM160.64 72.2114C160.64 72.6289 160.293 72.9742 159.874 72.9742H154.402C153.983 72.9742 153.637 72.6289 153.637 72.2114V66.7598C153.637 66.3423 153.983 65.9971 154.402 65.9971H159.874C160.293 65.9971 160.64 66.3423 160.64 66.7598V72.2114Z" fill="white"/>
<path d="M104.093 68.9196C108.912 68.9196 112.836 65.0096 112.836 60.2083V27.2499C112.836 22.4487 108.912 18.5386 104.093 18.5386H39.2211C34.4021 18.5386 30.4775 22.4487 30.4775 27.2499V60.2083C30.4775 65.0096 34.4021 68.9196 39.2211 68.9196H104.093ZM32.8145 60.2083V27.2499C32.8145 23.7252 35.6914 20.867 39.2211 20.867H104.093C107.63 20.867 110.499 23.7333 110.499 27.2499V60.2083C110.499 63.733 107.622 66.5913 104.093 66.5913H39.2211C35.6914 66.5913 32.8145 63.733 32.8145 60.2083Z" fill="white"/>
<path d="M20.2834 110.662V127.771C20.2834 131.119 23.0153 133.841 26.3757 133.841H181.536C184.896 133.841 187.628 131.119 187.628 127.771V110.662C187.628 107.314 184.896 104.592 181.536 104.592H26.3757C23.0153 104.6 20.2834 107.322 20.2834 110.662ZM185.291 110.662V127.771C185.291 129.834 183.607 131.513 181.536 131.513H26.3757C24.3047 131.513 22.6204 129.834 22.6204 127.771V110.662C22.6204 108.598 24.3047 106.92 26.3757 106.92H181.536C183.607 106.928 185.291 108.598 185.291 110.662Z" fill="white"/>
<path d="M193.922 0H14.0783C6.31793 0 0 6.29461 0 14.0264V38.0407C0 39.9435 1.54725 41.485 3.45713 41.485C5.36701 41.485 6.91426 39.9435 6.91426 38.0407V14.0264C6.91426 10.0923 10.1296 6.88875 14.0783 6.88875H193.922C197.87 6.88875 201.086 10.0923 201.086 14.0264V134.339C201.086 138.273 197.87 141.476 193.922 141.476H14.0783C10.1296 141.476 6.91426 138.273 6.91426 134.339V96.2097C6.91426 94.3068 5.36701 92.7653 3.45713 92.7653C1.54725 92.7653 0 94.3068 0 96.2097V134.339C0 142.078 6.31793 148.365 14.0783 148.365H44.983V151.063H41.405V157.582C41.405 162.769 45.6438 166.992 50.8496 166.992C56.0555 166.992 60.2943 162.769 60.2943 157.582V151.063H56.6679V148.365H72.0034V151.063H68.4254V157.582C68.4254 162.769 72.6642 166.992 77.8701 166.992C83.0759 166.992 87.3147 162.769 87.3147 157.582V151.063H83.6884V148.365H98.1777V151.063H94.5997V157.582C94.5997 162.769 98.8385 166.992 104.044 166.992C109.25 166.992 113.489 162.769 113.489 157.582V151.063H109.863V148.365H125.939V151.063H122.829V157.582C122.829 162.769 127.068 166.992 132.274 166.992C137.479 166.992 141.718 162.769 141.718 157.582V151.063H137.624V148.365H153.049V151.063H149.471V157.582C149.471 162.769 153.709 166.992 158.915 166.992C164.121 166.992 168.36 162.769 168.36 157.582V151.063H164.733V148.365H193.914C201.682 148.365 207.992 142.07 207.992 134.339V14.0264C208 6.29461 201.69 0 193.922 0ZM155.394 151.071V148.373H162.405V151.071H155.394ZM57.9573 157.59C57.9573 161.492 54.7661 164.672 50.8496 164.672C46.9332 164.672 43.742 161.492 43.742 157.59V153.399H57.9493V157.59H57.9573ZM54.339 151.071H47.328V148.373H54.339V151.071ZM84.9777 157.59C84.9777 161.492 81.7865 164.672 77.8701 164.672C73.9536 164.672 70.7624 161.492 70.7624 157.59V153.399H84.9697V157.59H84.9777ZM81.3514 151.071H74.3404V148.373H81.3514V151.071ZM111.152 157.59C111.152 161.492 107.961 164.672 104.044 164.672C100.128 164.672 96.9367 161.492 96.9367 157.59V153.399H111.144V157.59H111.152ZM107.534 151.071H100.523V148.373H107.534V151.071ZM139.389 157.59C139.389 161.492 136.198 164.672 132.282 164.672C128.365 164.672 125.174 161.492 125.174 157.59V153.399H139.381V157.59H139.389ZM135.296 151.071H128.285V148.373H135.296V151.071ZM166.031 157.59C166.031 161.492 162.84 164.672 158.923 164.672C155.007 164.672 151.816 161.492 151.816 157.59V153.399H166.023V157.59H166.031Z" fill="white"/>
</svg>
