<svg viewBox="0 0 138 185" fill="none" xmlns="http://www.w3.org/2000/svg">
<path d="M25.9204 8.23183C29.1549 6.96877 32.5856 6.26043 36.1017 6.12389C37.4074 6.07268 38.3377 5.5521 38.8839 4.57066C39.4471 3.5551 39.4386 2.46272 38.8497 1.49836C38.4145 0.772955 37.5269 -0.071929 35.8457 0.00487858C25.9631 0.482793 17.3521 4.23783 10.9174 10.8774C8.50218 13.4633 6.95749 15.4176 5.60056 17.6109C1.71751 23.892 -0.160013 30.8645 0.0106708 38.3489C0.0277392 39.1938 0.300833 39.8936 0.812884 40.4484C1.41881 41.1055 2.25516 41.4554 3.10004 41.4554C3.49262 41.4554 3.89372 41.3786 4.26923 41.2164C5.14825 40.8409 6.18088 39.9875 6.12968 38.0076C5.80538 24.9503 13.7592 12.9768 25.9204 8.23183Z" fill="white"/>
<path d="M27.7127 17.2951C30.2303 15.9809 33.1063 15.264 36.5029 15.1104C38.2353 15.0336 39.5837 13.6852 39.5752 12.0466C39.5752 11.1676 39.2594 10.4166 38.6706 9.86185C38.022 9.25592 37.0832 8.94869 36.0165 9.00843C27.6956 9.48634 20.8512 12.9939 15.0821 19.753C13.0937 22.1425 11.4039 25.3172 10.3286 28.6882C9.35568 31.7349 8.92044 34.9097 9.01432 38.1356C9.05699 39.373 9.67145 40.3374 10.7638 40.858C11.2076 41.0713 11.6599 41.1738 12.1037 41.1738C12.7608 41.1738 13.4009 40.9433 13.9897 40.491C15.1077 39.6291 15.1248 38.3745 15.1419 37.6235C15.2869 28.4237 19.5199 21.5793 27.7127 17.2951Z" fill="white"/>
<path d="M39.8995 22.1682C39.8056 20.4528 38.2951 19.1812 36.4602 19.2836C31.7152 19.5226 27.5847 21.4172 24.1539 24.9418C20.8939 28.5347 19.2468 32.7591 19.2809 37.5126C19.2894 38.5111 19.6394 39.3987 20.2623 40.0131C20.8085 40.5508 21.5425 40.8495 22.3276 40.8495C22.3447 40.8495 22.3532 40.8495 22.3703 40.8495C24.171 40.8239 25.3914 39.4755 25.3999 37.4956C25.4255 30.9072 30.2132 25.8208 36.7931 25.4026C38.662 25.2746 40.0019 23.8835 39.8995 22.1682Z" fill="white"/>
<path d="M128.382 61.835H48.1265V39.3645C48.1265 34.6366 44.2861 30.7962 39.5581 30.7962C34.8302 30.7962 30.9898 34.6366 30.9898 39.3645V70.6935C30.9728 70.958 30.9557 71.2226 30.9557 71.4786V129.34H38.2865V71.4786C38.2865 70.207 39.3192 69.1744 40.5908 69.1744H128.382C129.653 69.1744 130.686 70.207 130.686 71.4786V159.27C130.686 160.541 129.653 161.574 128.382 161.574H40.5908C39.3192 161.574 38.2865 160.541 38.2865 159.27V158.297H30.9557V159.27C30.9557 164.587 35.2825 168.905 40.5908 168.905H51.4719V170.347H48.6641V177.977C48.6641 181.484 51.5145 184.335 55.0221 184.335H58.5638C62.0713 184.335 64.9217 181.484 64.9217 177.977V170.347H62.0798V168.905H106.842V170.347H104.034V177.977C104.034 181.484 106.884 184.335 110.392 184.335H113.934C117.441 184.335 120.291 181.484 120.291 177.977V170.347H117.45V168.905H128.365C133.682 168.905 138 164.578 138 159.27V71.4786C138.026 66.1618 133.699 61.835 128.382 61.835ZM39.5581 36.2069C41.2991 36.2069 42.7158 37.6235 42.7158 39.3645V61.835H40.5993C39.1314 61.835 37.7062 62.1593 36.409 62.7908V39.3645C36.4005 37.6235 37.8172 36.2069 39.5581 36.2069ZM113.951 181.049H110.409C108.711 181.049 107.337 179.666 107.337 177.977V173.633H117.031V177.977C117.023 179.675 115.64 181.049 113.951 181.049ZM61.6446 173.633V177.977C61.6446 179.675 60.2621 181.049 58.5723 181.049H55.0306C53.3323 181.049 51.9583 179.666 51.9583 177.977V173.633H61.6446ZM54.7575 170.347V168.905H58.8027V170.347H54.7575ZM114.181 168.905V170.347H110.136V168.905H114.181Z" fill="white"/>
<path d="M116.98 123.477C120.846 123.477 123.995 120.328 123.995 116.462V86.2513C123.995 82.3853 120.846 79.2362 116.98 79.2362H52.0009C48.135 79.2362 44.9858 82.3853 44.9858 86.2513V116.462C44.9858 120.328 48.135 123.477 52.0009 123.477H116.98ZM50.132 86.2513C50.132 85.2187 50.9683 84.3823 52.0009 84.3823H116.98C118.013 84.3823 118.849 85.2187 118.849 86.2513V116.462C118.849 117.495 118.013 118.331 116.98 118.331H52.0009C50.9683 118.331 50.132 117.495 50.132 116.462V86.2513Z" fill="white"/>
</svg>
