<svg viewBox="0 0 225 284" fill="none" xmlns="http://www.w3.org/2000/svg">
<path d="M103.888 284C93.3282 281.45 82.4582 279.79 72.2782 276.2C26.6082 260.1 -3.92177 212.22 0.408229 164.05C1.82823 148.29 8.29823 134.06 15.5582 120.3C38.4282 76.98 69.8382 40.03 102.938 4.38C104.588 2.6 106.918 1.44 108.938 0C111.038 0 113.148 0 115.248 0C122.758 7.52 130.658 14.7 137.708 22.63C163.978 52.19 188.598 83.01 207.318 118.07C217.898 137.89 225.548 158.31 223.928 181.65C220.428 232.01 175.928 278.33 125.768 282.81C123.928 282.97 122.128 283.59 120.308 284C114.828 284 109.358 284 103.888 284ZM112.098 29.03C107.768 33.9 104.068 37.92 100.538 42.06C75.5482 71.37 51.3382 101.26 33.9782 135.94C27.7482 148.38 22.2782 161.29 23.4582 175.66C26.4882 212.74 44.7282 239.82 79.3482 253.55C114.728 267.59 147.198 260.26 174.718 233.98C194.908 214.69 210.568 177.27 192.518 140.76C171.968 99.19 142.668 64.17 112.098 29.03Z" fill="url(#paint0_linear_2_111)"/>
<path d="M177.238 177.19C176.868 192.79 171.838 206.47 161.198 217.89C156.008 223.46 148.888 224.23 143.818 219.97C138.418 215.43 138.258 208.43 143.398 202.08C156.728 185.62 156.788 169.21 143.568 153.01C138.298 146.55 138.308 139.83 143.598 135.09C148.698 130.52 155.958 131.31 161.418 137.23C171.838 148.51 176.758 162.02 177.238 177.19Z" fill="url(#paint1_linear_2_111)"/>
<defs>
<linearGradient id="paint0_linear_2_111" x1="-0.00177145" y1="142" x2="224.138" y2="142" gradientUnits="userSpaceOnUse">
<stop offset="0.000558651" stop-color="#00599D"/>
<stop offset="0.5397" stop-color="#58B5E0"/>
<stop offset="1" stop-color="#0085A0"/>
</linearGradient>
<linearGradient id="paint1_linear_2_111" x1="139.614" y1="177.411" x2="177.233" y2="177.411" gradientUnits="userSpaceOnUse">
<stop offset="0.000558651" stop-color="#00599D"/>
<stop offset="0.5397" stop-color="#58B5E0"/>
<stop offset="1" stop-color="#0085A0"/>
</linearGradient>
</defs>
</svg>
