<svg width="250" height="349" viewBox="0 0 250 349" fill="none" xmlns="http://www.w3.org/2000/svg">
<path d="M238.27 205.48C230.44 188.37 219.49 178.94 207.43 178.94H189.43C179 178.94 169.39 186 161.93 198.98H148.26V177.53H160.91C169.44 177.53 176.45 170.43 177.02 161.47C177.51 161.53 178.01 161.56 178.51 161.56H201.59C208.78 161.56 214.63 155.71 214.63 148.52V144.69C214.63 137.5 208.78 131.65 201.59 131.65H197.88V119.05H197.84C197.84 117.47 197.39 115.1 195.24 112.75C194.08 111.48 192.55 110.34 190.57 109.29C188.34 108.1 185.49 107 182.06 106V18.8C182.06 8.43 173.63 0 163.26 0H89.25C78.88 0 70.45 8.43 70.45 18.8C70.45 22 73.04 24.59 76.24 24.59C79.44 24.59 82.03 22 82.03 18.8C82.03 14.82 85.27 11.58 89.25 11.58H163.27C167.25 11.58 170.49 14.82 170.49 18.8V122.96C169.66 123.12 168.8 123.27 167.89 123.43C156.31 125.41 141.5 126.5 126.18 126.5C110.86 126.5 96.05 125.41 84.47 123.43C83.62 123.28 82.81 123.14 82.03 122.99V54.17C82.03 50.97 79.44 48.38 76.24 48.38C73.04 48.38 70.45 50.97 70.45 54.17V105.93C66.96 106.94 64.05 108.05 61.79 109.24C59.79 110.3 58.25 111.43 57.07 112.71C54.9 115.07 54.44 117.46 54.44 119.05C54.44 119.29 54.46 119.52 54.48 119.75V131.66H53.58C46.39 131.66 40.54 137.51 40.54 144.7V148.53C40.54 155.72 46.39 161.57 53.58 161.57H76.66C77.16 161.57 77.66 161.54 78.15 161.48C78.72 170.44 85.73 177.54 94.26 177.54H102.37V198.99H93.93C84.6 182.5 72.02 178.95 62.92 178.95H44.15C37.58 178.95 31.32 181.39 25.52 186.2C20.34 190.5 15.75 196.54 11.87 204.16C4.21 219.18 0 239.02 0 260.03C0 281.04 4.21 300.88 11.86 315.9C15.74 323.52 20.34 329.57 25.51 333.86C31.31 338.67 37.57 341.11 44.14 341.11H62.93C74 341.11 84.35 334.02 92.31 321.07H158.13C158.28 321.41 158.43 321.75 158.58 322.08C166.41 339.19 177.36 348.62 189.42 348.62H207.42C219.48 348.62 230.43 339.2 238.26 322.08C245.43 306.41 249.38 285.7 249.38 263.77C249.38 241.84 245.44 221.15 238.27 205.48ZM203.05 144.7V148.53C203.05 149.33 202.4 149.98 201.6 149.98H179.78C183.63 148.98 186.85 147.87 189.4 146.66C191.55 145.64 193.3 144.5 194.63 143.24H201.6C202.4 143.24 203.05 143.9 203.05 144.7ZM182.07 118.18C182.93 118.5 183.64 118.8 184.22 119.07C183.64 119.34 182.92 119.64 182.07 119.96V118.18ZM126.18 138.08C144.16 138.08 161.11 136.66 173.92 134.09C178.8 133.11 182.94 131.99 186.29 130.74V133.05C185.35 133.86 184.67 134.96 184.39 136.21C181.93 137.38 177.09 139.08 167.88 140.65C156.3 142.63 141.49 143.72 126.17 143.72C110.85 143.72 96.04 142.63 84.46 140.65C71.68 138.47 67.3 136.03 66.05 135.13V130.74C69.4 131.99 73.54 133.11 78.42 134.09C91.25 136.66 108.2 138.08 126.18 138.08ZM70.45 120.01C69.5 119.66 68.72 119.34 68.1 119.05C68.73 118.76 69.5 118.44 70.45 118.09V120.01ZM52.13 148.52V144.69C52.13 143.89 52.78 143.24 53.58 143.24H57.31C57.45 143.24 57.58 143.23 57.71 143.22C59.05 144.48 60.8 145.63 62.96 146.65C65.51 147.86 68.73 148.97 72.58 149.97H53.58C52.78 149.98 52.13 149.32 52.13 148.52ZM89.7 160.29V153.14C100.51 154.54 113.07 155.3 126.18 155.3C140.44 155.3 154.06 154.41 165.47 152.76V160.3C165.47 163.36 163.38 165.95 160.9 165.95H94.27C91.8 165.94 89.7 163.36 89.7 160.29ZM113.97 177.53H136.67V198.98H113.97V177.53ZM22.19 310.65C15.35 297.23 11.59 279.25 11.59 260.03C11.59 240.81 15.36 222.84 22.19 209.41C25.31 203.29 29.02 198.34 32.92 195.1C34.91 193.45 36.93 192.24 38.96 191.48C35.92 195.03 33.14 199.26 30.65 204.15C23 219.17 18.79 239.01 18.79 260.02C18.79 281.03 23 300.87 30.65 315.89C33.14 320.78 35.92 325.01 38.96 328.56C36.92 327.8 34.9 326.59 32.92 324.94C29.02 321.72 25.31 316.77 22.19 310.65ZM62.93 329.54C59.14 329.54 55.36 328 51.7 324.96C47.8 321.72 44.09 316.77 40.97 310.65C34.13 297.23 30.37 279.25 30.37 260.03C30.37 240.81 34.14 222.84 40.97 209.41C44.09 203.29 47.8 198.34 51.7 195.1C55.36 192.06 59.14 190.52 62.93 190.52C70.27 190.52 76.31 193.82 81.24 200.58C79.31 201.52 77.26 202.96 75.2 205.14C72.08 208.46 69.34 213.06 67.05 218.81C62.63 229.91 60.2 244.55 60.2 260.03C60.2 275.51 62.63 290.15 67.05 301.25C69.34 307.01 72.08 311.6 75.2 314.92C76.79 316.61 78.38 317.86 79.92 318.77C74.73 325.76 68.84 329.54 62.93 329.54ZM87.98 309.5C85.59 309.5 81.49 306.22 77.81 296.96C73.92 287.19 71.78 274.07 71.78 260.03C71.78 245.98 73.92 232.87 77.81 223.1C81.49 213.85 85.59 210.56 87.98 210.56H147.59C146.11 212.96 144.75 215.72 143.52 218.81C139.1 229.91 136.67 244.55 136.67 260.03C136.67 275.51 139.1 290.15 143.52 301.25C144.75 304.34 146.11 307.1 147.59 309.5H87.98ZM169.12 317.28C162.63 303.09 159.05 284.09 159.05 263.79C159.05 243.49 162.63 224.49 169.12 210.3C173.7 200.28 179.33 193.67 185.05 191.4C181.95 195.26 179.1 199.97 176.58 205.48C169.41 221.15 165.46 241.86 165.46 263.79C165.46 285.72 169.41 306.43 176.58 322.1C179.1 327.61 181.94 332.32 185.05 336.18C179.34 333.91 173.7 327.3 169.12 317.28ZM227.73 317.28C221.98 329.85 214.58 337.05 207.43 337.05C200.27 337.05 192.87 329.84 187.13 317.28C180.64 303.09 177.06 284.09 177.06 263.79C177.06 243.49 180.64 224.49 187.13 210.3C192.88 197.73 200.28 190.53 207.43 190.53C214.59 190.53 221.99 197.74 227.73 210.3C234.22 224.49 237.8 243.49 237.8 263.79C237.8 284.09 234.23 303.09 227.73 317.28Z" fill="url(#paint0_linear_2_95)"/>
<defs>
<linearGradient id="paint0_linear_2_95" x1="0" y1="174.32" x2="249.386" y2="174.32" gradientUnits="userSpaceOnUse">
<stop offset="0.000558651" stop-color="#00599D"/>
<stop offset="0.5397" stop-color="#58B5E0"/>
<stop offset="1" stop-color="#0085A0"/>
</linearGradient>
</defs>
</svg>
