<svg width="283" height="378" viewBox="0 0 283 378" fill="none" xmlns="http://www.w3.org/2000/svg">
<path d="M53.143 16.8891C59.783 14.2991 66.803 12.8491 74.013 12.5691C76.683 12.4691 78.603 11.3891 79.713 9.37912C80.873 7.28912 80.843 5.05912 79.653 3.07912C78.753 1.58912 76.943 -0.140885 73.483 0.00911542C53.233 0.989115 35.573 8.69911 22.383 22.3191C17.433 27.6291 14.273 31.6291 11.483 36.1291C3.52304 48.9891 -0.336958 63.2891 0.0230425 78.6391C0.0630425 80.3591 0.613042 81.8091 1.66304 82.9391C2.90304 84.2791 4.62304 85.0091 6.36304 85.0091C7.17304 85.0091 7.98304 84.8491 8.75304 84.5291C10.553 83.7691 12.673 81.9991 12.573 77.9591C11.903 51.1591 28.213 26.6191 53.143 16.8891Z" fill="url(#paint0_linear_2_104)"/>
<path d="M56.813 35.4691C61.973 32.7691 67.873 31.3091 74.843 30.9891C78.393 30.8291 81.163 28.0691 81.153 24.6991C81.143 22.9091 80.503 21.3591 79.303 20.2191C77.973 18.9691 76.043 18.3491 73.853 18.4691C56.793 19.4391 42.753 26.6391 30.923 40.4991C26.843 45.3991 23.383 51.9091 21.183 58.8191C19.193 65.0591 18.293 71.5791 18.493 78.1891C18.573 80.7191 19.843 82.7091 22.073 83.7691C22.983 84.1991 23.903 84.4191 24.813 84.4191C26.153 84.4191 27.483 83.9491 28.683 83.0291C30.973 81.2691 31.013 78.6891 31.043 77.1391C31.353 58.2791 40.023 44.2491 56.813 35.4691Z" fill="url(#paint1_linear_2_104)"/>
<path d="M81.8131 45.4591C81.6131 41.9491 78.5231 39.3391 74.7631 39.5391C65.0431 40.0291 56.5631 43.9191 49.5231 51.1391C42.8331 58.4991 39.4731 67.1791 39.5231 76.9191C39.5331 78.9691 40.2531 80.7891 41.5331 82.0491C42.6531 83.1491 44.1631 83.7591 45.7731 83.7591C45.8031 83.7591 45.8331 83.7591 45.8531 83.7591C49.5531 83.7091 52.0431 80.9491 52.0631 76.8791C52.1131 63.3691 61.9331 52.9491 75.4331 52.0891C79.2731 51.8291 82.0131 48.9791 81.8131 45.4591Z" fill="url(#paint2_linear_2_104)"/>
<path d="M263.233 126.799H98.673V80.7192C98.673 71.0292 90.793 63.1492 81.103 63.1492C71.413 63.1492 63.533 71.0292 63.533 80.7192V144.959C63.493 145.499 63.463 146.039 63.463 146.559V265.189H78.503V146.559C78.503 143.949 80.623 141.829 83.233 141.829H263.233C265.843 141.829 267.963 143.949 267.963 146.559V326.559C267.963 329.169 265.843 331.289 263.233 331.289H83.233C80.623 331.289 78.503 329.169 78.503 326.559V324.559H63.463V326.559C63.463 337.459 72.333 346.319 83.223 346.319H105.533V349.279H99.783V364.919C99.783 372.109 105.633 377.959 112.823 377.959H120.083C127.273 377.959 133.123 372.109 133.123 364.919V349.279H127.303V346.319H219.083V349.279H213.333V364.919C213.333 372.109 219.183 377.959 226.373 377.959H233.633C240.823 377.959 246.673 372.109 246.673 364.919V349.279H240.853V346.319H263.243C274.143 346.319 283.003 337.449 283.003 326.559V146.559C282.993 135.659 274.123 126.799 263.233 126.799ZM81.103 74.2492C84.673 74.2492 87.573 77.1492 87.573 80.7192V126.799H83.233C80.213 126.799 77.303 127.469 74.643 128.759V80.7192C74.633 77.1492 77.533 74.2492 81.103 74.2492ZM233.633 371.229H226.373C222.893 371.229 220.073 368.399 220.073 364.929V356.019H239.943V364.929C239.933 368.399 237.113 371.229 233.633 371.229ZM126.393 356.009V364.919C126.393 368.399 123.563 371.219 120.093 371.219H112.833C109.353 371.219 106.533 368.389 106.533 364.919V356.009H126.393ZM112.273 349.279V346.319H120.573V349.279H112.273ZM234.113 346.329V349.289H225.813V346.329H234.113Z" fill="url(#paint3_linear_2_104)"/>
<path d="M239.843 253.179C247.773 253.179 254.233 246.729 254.233 238.789V176.839C254.233 168.909 247.783 162.449 239.843 162.449H106.613C98.683 162.449 92.223 168.899 92.223 176.839V238.789C92.223 246.719 98.673 253.179 106.613 253.179H239.843ZM102.783 176.849C102.783 174.739 104.503 173.019 106.613 173.019H239.843C241.953 173.019 243.673 174.739 243.673 176.849V238.799C243.673 240.909 241.953 242.629 239.843 242.629H106.613C104.503 242.629 102.783 240.909 102.783 238.799V176.849Z" fill="url(#paint4_linear_2_104)"/>
<defs>
<linearGradient id="paint0_linear_2_104" x1="0" y1="42.5069" x2="80.5664" y2="42.5069" gradientUnits="userSpaceOnUse">
<stop offset="0.000558651" stop-color="#00599D"/>
<stop offset="0.5397" stop-color="#58B5E0"/>
<stop offset="1" stop-color="#0085A0"/>
</linearGradient>
<linearGradient id="paint1_linear_2_104" x1="18.4658" y1="51.4386" x2="81.1545" y2="51.4386" gradientUnits="userSpaceOnUse">
<stop offset="0.000558651" stop-color="#00599D"/>
<stop offset="0.5397" stop-color="#58B5E0"/>
<stop offset="1" stop-color="#0085A0"/>
</linearGradient>
<linearGradient id="paint2_linear_2_104" x1="39.5225" y1="61.6449" x2="81.8243" y2="61.6449" gradientUnits="userSpaceOnUse">
<stop offset="0.000558651" stop-color="#00599D"/>
<stop offset="0.5397" stop-color="#58B5E0"/>
<stop offset="1" stop-color="#0085A0"/>
</linearGradient>
<linearGradient id="paint3_linear_2_104" x1="63.463" y1="220.563" x2="283.008" y2="220.563" gradientUnits="userSpaceOnUse">
<stop offset="0.000558651" stop-color="#00599D"/>
<stop offset="0.5397" stop-color="#58B5E0"/>
<stop offset="1" stop-color="#0085A0"/>
</linearGradient>
<linearGradient id="paint4_linear_2_104" x1="92.223" y1="207.817" x2="254.237" y2="207.817" gradientUnits="userSpaceOnUse">
<stop offset="0.000558651" stop-color="#00599D"/>
<stop offset="0.5397" stop-color="#58B5E0"/>
<stop offset="1" stop-color="#0085A0"/>
</linearGradient>
</defs>
</svg>
