<svg width="295" height="343" viewBox="0 0 295 343" fill="none" xmlns="http://www.w3.org/2000/svg">
<path d="M166.068 243.566C166.168 243.566 166.268 243.566 166.358 243.566C168.758 243.486 170.978 242.486 172.618 240.736L189.548 222.686C192.928 219.076 192.748 213.386 189.138 210.006L124.178 149.076C122.428 147.436 120.148 146.576 117.748 146.656C115.348 146.736 113.128 147.736 111.488 149.486L94.5576 167.536C91.1776 171.146 91.3576 176.836 94.9676 180.216L159.928 241.146C161.608 242.706 163.778 243.566 166.068 243.566ZM118.078 156.506L182.108 216.566L166.048 233.686L102.018 173.626L118.078 156.506Z" fill="url(#paint0_linear_2_97)"/>
<path d="M112.788 262.306C121.478 265.986 130.708 267.846 140.218 267.846C149.728 267.846 158.958 265.986 167.648 262.306C176.038 258.756 183.568 253.676 190.038 247.206C196.508 240.736 201.588 233.206 205.138 224.816C208.818 216.126 210.678 206.896 210.678 197.386C210.678 187.876 208.818 178.646 205.138 169.956C201.588 161.566 196.508 154.036 190.038 147.566C183.568 141.096 176.038 136.016 167.648 132.466C158.958 128.786 149.728 126.926 140.218 126.926C130.708 126.926 121.478 128.786 112.788 132.466C104.398 136.016 96.8677 141.096 90.3977 147.566C83.9277 154.036 78.8477 161.566 75.2977 169.956C71.6177 178.646 69.7577 187.876 69.7577 197.386C69.7577 206.896 71.6177 216.126 75.2977 224.816C78.8477 233.206 83.9277 240.736 90.3977 247.206C96.8677 253.676 104.398 258.756 112.788 262.306ZM140.218 136.546C173.768 136.546 201.068 163.846 201.068 197.396C201.068 230.946 173.768 258.246 140.218 258.246C106.668 258.246 79.3677 230.946 79.3677 197.396C79.3677 163.846 106.668 136.546 140.218 136.546Z" fill="url(#paint1_linear_2_97)"/>
<path d="M293.718 120.775C292.088 110.645 287.978 98.9855 281.818 87.0655C275.448 74.7255 267.198 62.5255 257.318 50.7955C243.978 34.9655 229.078 21.7755 214.238 12.6455C199.188 3.38548 185.428 -0.924521 174.448 0.165479C170.298 0.575479 166.468 2.30548 163.388 5.14548C160.328 7.96548 158.288 11.6255 157.508 15.7255L148.408 62.9355C147.538 67.4355 149.018 71.9955 152.368 75.1255L182.288 103.115L173.668 112.285L157.668 97.2755C151.458 91.4455 143.348 88.3855 134.838 88.6655C126.328 88.9355 118.428 92.5055 112.598 98.7255L34.9876 181.455C33.1676 183.395 33.2676 186.435 35.2076 188.245C37.1476 190.065 40.1876 189.965 41.9976 188.025L119.608 105.295C123.678 100.955 129.198 98.4655 135.138 98.2755C141.088 98.0855 146.748 100.225 151.088 104.295L235.058 183.065C239.398 187.135 241.888 192.655 242.078 198.595C242.268 204.545 240.128 210.205 236.058 214.545L132.098 325.355C123.698 334.315 109.568 334.765 100.608 326.365L16.6376 247.595C12.2976 243.525 9.80765 238.005 9.61765 232.065C9.42765 226.115 11.5676 220.455 15.6376 216.115C17.4576 214.175 17.3576 211.135 15.4176 209.325C13.4776 207.505 10.4376 207.605 8.62765 209.545C2.79765 215.755 -0.262353 223.865 0.017647 232.375C0.287647 240.885 3.85765 248.785 10.0776 254.615L94.0477 333.385C100.008 338.975 107.708 342.016 115.838 342.016C116.188 342.016 116.538 342.005 116.878 341.995C125.388 341.725 133.288 338.155 139.118 331.945L243.068 221.125C248.898 214.915 251.958 206.805 251.678 198.295C251.408 189.785 247.838 181.885 241.618 176.055L218.368 154.245L227.488 145.425L260.908 176.695C263.408 179.035 266.618 180.285 269.928 180.275C271.108 180.275 272.298 180.115 273.478 179.795C277.958 178.565 281.408 175.165 282.698 170.705L292.758 136.005C294.188 131.065 294.518 125.795 293.718 120.775ZM212.018 148.275L180.668 118.865L189.298 109.685L221.128 139.465L212.018 148.275ZM283.528 133.335L273.478 168.025C272.968 169.795 271.538 170.365 270.938 170.525C270.718 170.585 270.358 170.655 269.938 170.655C269.228 170.655 268.318 170.455 267.478 169.665L158.928 68.1055C158.008 67.2455 157.598 65.9855 157.838 64.7555L166.938 17.5455C167.748 13.3655 171.228 10.1455 175.398 9.73548C176.198 9.65548 177.018 9.61548 177.868 9.61548C186.338 9.61548 197.338 13.5355 209.198 20.8355C223.178 29.4355 237.278 41.9355 249.968 56.9955C268.348 78.8055 281.158 103.215 284.218 122.305C284.808 125.935 284.568 129.745 283.528 133.335Z" fill="url(#paint2_linear_2_97)"/>
<defs>
<linearGradient id="paint0_linear_2_97" x1="92.1486" y1="195.098" x2="191.974" y2="195.098" gradientUnits="userSpaceOnUse">
<stop offset="0.000558651" stop-color="#00599D"/>
<stop offset="0.5397" stop-color="#58B5E0"/>
<stop offset="1" stop-color="#0085A0"/>
</linearGradient>
<linearGradient id="paint1_linear_2_97" x1="69.7588" y1="197.39" x2="210.671" y2="197.39" gradientUnits="userSpaceOnUse">
<stop offset="0.000558651" stop-color="#00599D"/>
<stop offset="0.5397" stop-color="#58B5E0"/>
<stop offset="1" stop-color="#0085A0"/>
</linearGradient>
<linearGradient id="paint2_linear_2_97" x1="-0.00235301" y1="171.005" x2="294.147" y2="171.005" gradientUnits="userSpaceOnUse">
<stop offset="0.000558651" stop-color="#00599D"/>
<stop offset="0.5397" stop-color="#58B5E0"/>
<stop offset="1" stop-color="#0085A0"/>
</linearGradient>
</defs>
</svg>
