<svg width="278" height="83" viewBox="0 0 278 83" fill="none" xmlns="http://www.w3.org/2000/svg">
<path fill-rule="evenodd" clip-rule="evenodd" d="M66.09 43.56C48.83 65.4 13.04 60.48 0 34.76C12.32 69.62 52.99 71.5 66.09 43.56Z" fill="#041AAC"/>
<path d="M96.39 82.48C93.26 82.48 90.58 81.82 88.34 80.5C86.1 79.18 84.98 77.61 84.98 75.77V50.55C88.11 50.55 90.79 51.21 93.03 52.53C95.27 53.85 96.39 55.42 96.39 57.26V82.48Z" fill="#727272"/>
<path d="M146.12 66.5C146.12 63.92 144.57 61.68 141.48 59.79C138.39 57.9 134.64 56.95 130.25 56.95C125.81 56.95 122.05 57.89 118.96 59.78C115.87 61.66 114.32 63.9 114.32 66.51V75.57C114.32 77.53 113.12 79.22 110.72 80.64C108.32 82.05 105.44 82.76 102.09 82.76V66.62C102.09 62.16 104.81 58.36 110.24 55.21C115.68 52.06 122.21 50.48 129.84 50.48C137.42 50.48 143.93 52.06 149.37 55.21C154.81 58.36 157.52 62.16 157.52 66.62V82.5C154.39 82.5 151.71 81.84 149.47 80.52C147.23 79.2 146.11 77.63 146.11 75.79V66.5H146.12Z" fill="#727272"/>
<path d="M206.45 57.24C206.45 55.4 207.57 53.83 209.81 52.51C212.05 51.19 214.74 50.53 217.86 50.53V66.41C217.86 70.87 215.14 74.67 209.71 77.82C204.27 80.97 197.76 82.55 190.18 82.55C182.55 82.55 176.02 80.97 170.58 77.82C165.14 74.67 162.43 70.87 162.43 66.41V50.3C165.78 50.3 168.66 51.01 171.06 52.42C173.46 53.83 174.66 55.52 174.66 57.49V66.55C174.66 69.16 176.21 71.4 179.3 73.28C182.39 75.16 186.15 76.11 190.59 76.11C194.98 76.11 198.72 75.16 201.82 73.27C204.91 71.38 206.46 69.14 206.46 66.56L206.45 57.24Z" fill="#727272"/>
<path d="M234.17 49.17V50.41H250.26C257.82 50.41 264.3 51.96 269.71 55.07C275.12 58.18 277.82 61.93 277.82 66.36C277.82 70.79 275.1 74.56 269.67 77.69C264.24 80.82 257.77 82.39 250.25 82.39C242.73 82.39 236.27 80.82 230.86 77.69C225.45 74.56 222.75 70.78 222.75 66.36V42.46C225.87 42.46 228.56 43.12 230.8 44.44C233.06 45.74 234.17 47.33 234.17 49.17ZM266.36 66.53C266.36 63.89 264.8 61.63 261.69 59.76C258.58 57.88 254.77 56.94 250.27 56.94H234.18V66.54C234.18 69.18 235.74 71.45 238.85 73.36C241.96 75.27 245.77 76.22 250.27 76.22C254.77 76.22 258.58 75.27 261.69 73.36C264.8 71.43 266.36 69.16 266.36 66.53Z" fill="#727272"/>
<path fill-rule="evenodd" clip-rule="evenodd" d="M36.06 82.2H24.65V43.45C27.78 43.45 30.46 44.25 32.7 45.84C34.94 47.44 36.06 49.35 36.06 51.58V59.38H51.02C58.65 59.57 62.98 60.43 67.31 63.26C70.79 65.1 73.53 67.39 75.49 70.12C77.46 72.85 78.44 75.75 78.44 78.82V82.21H67.04V78.73C67.04 75.49 65.48 72.68 62.37 70.29C59.26 67.9 55.5 66.72 51.07 66.72H36.06V82.2Z" fill="#727272"/>
<path fill-rule="evenodd" clip-rule="evenodd" d="M71.78 25.12C71.91 19.83 77.45 18.84 81.09 20.08C76.83 23.43 79.28 28.12 78.15 32.09C72.82 59.21 49.13 67.61 28.04 66.99C29.1 66.35 31.31 65.13 31.81 64.58C25.16 65.41 16.07 64.31 9.82999 58.47C24.79 64.34 69.98 59.82 71.78 25.12Z" fill="#041AAC"/>
<path fill-rule="evenodd" clip-rule="evenodd" d="M42.04 65.87C67.88 55.51 73.32 19.79 52.35 0C82.29 21.7 72.55 61.23 42.04 65.87Z" fill="#0078FF"/>
</svg>
