<svg xmlns="http://www.w3.org/2000/svg" width="100" height="100" viewBox="0 0 50 50" fill="#c7d9e7"><path d="M8 3.01c-3.47 0-5.99 2.08-5.99 4.94 0 2.87 2.58 5.04 5.99 5.04 3.47 0 5.99-2.12 5.99-5.1-.16-2.87-2.63-4.88-5.99-4.88zM3 15c-.55 0-1 .45-1 1v29c0 .55.45 1 1 1h10c.55 0 1-.45 1-1V16c0-.55-.45-1-1-1H3zm15 0c-.55 0-1 .45-1 1v29c0 .55.45 1 1 1h9a1 1 0 001-1V29.5c0-2.37 1.82-4.3 4.14-4.48.12-.02.24-.02.36-.02s.24 0 .36.02c2.32.18 4.14 2.11 4.14 4.48V45a1 1 0 001 1h9c.55 0 1-.45 1-1V28c0-6.47-3.47-13-11.21-13-3.52 0-6.18 1.36-7.79 2.49V16c0-.55-.45-1-1-1H18z"/></svg>27 46 C 27.552 46 28 45.552 28 45 L 28 30 L 28 29.75 L 28 29.5 C 28 27.13 29.820625 25.199531 32.140625 25.019531 C 32.260625 24.999531 32.38 25 32.5 25 C 32.62 25 32.739375 24.999531 32.859375 25.019531 C 35.179375 25.199531 37 27.13 37 29.5 L 37 45 C 37 45.552 37.448 46 38 46 L 47 46 C 47.55 46 48 45.55 48 45 L 48 28 C 48 21.53 44.529063 15 36.789062 15 C 33.269062 15 30.61 16.360234 29 17.490234 L 29 16 C 29 15.45 28.55 15 28 15 L 18 15 z"></path>
</svg>