<svg xmlns="http://www.w3.org/2000/svg" width="100" height="100" viewBox="0 0 50 50" fill="#c7d9e7"><path d="M44.898 14.5c-.398-2.2-2.296-3.8-4.5-4.3C37.102 9.5 31 9 24.398 9c-6.597 0-12.796.5-16.097 1.2-2.2.5-4.102 2-4.5 4.3C3.398 17 3 20.5 3 25s.398 8 .898 10.5c.403 2.2 2.301 3.8 4.5 4.3 3.5.7 9.5 1.2 16.102 1.2s12.602-.5 16.102-1.2c2.199-.5 4.097-2 4.5-4.3.398-2.5.898-6.102 1-10.5-.204-4.5-.704-8-1.204-10.5zM19 32V18l12.2 7z"/></svg>781 8.398438 39.800781 C 11.898438 40.5 17.898438 41 24.5 41 C 31.101563 41 37.101563 40.5 40.601563 39.800781 C 42.800781 39.300781 44.699219 37.800781 45.101563 35.5 C 45.5 33 46 29.398438 46.101563 25 C 45.898438 20.5 45.398438 17 44.898438 14.5 Z M 19 32 L 19 18 L 31.199219 25 Z"></path>
</svg>